<svg xmlns="http://www.w3.org/2000/svg" version="1.1" xmlns:xlink="http://www.w3.org/1999/xlink" xmlns:svgjs="http://svgjs.dev/svgjs" width="1000" height="522" viewBox="0 0 1000 522"><g transform="matrix(1,0,0,1,-0.6060606060606233,0.08615557646231764)"><svg viewBox="0 0 396 207" data-background-color="#ffffff" preserveAspectRatio="xMidYMid meet" height="522" width="1000" xmlns="http://www.w3.org/2000/svg" xmlns:xlink="http://www.w3.org/1999/xlink"><g id="tight-bounds" transform="matrix(1,0,0,1,0.2400000000000091,-0.03416514239023627)"><svg viewBox="0 0 395.52 207.06833028478047" height="207.06833028478047" width="395.52"><g><svg viewBox="0 0 395.52 207.06833028478047" height="207.06833028478047" width="395.52"><g transform="matrix(1,0,0,1,0,152.97891176360315)"><svg viewBox="0 0 395.52 54.08941852117731" height="54.08941852117731" width="395.52"><g id="textblocktransform"><svg viewBox="0 0 395.52 54.08941852117731" height="54.08941852117731" width="395.52" id="textblock"><g><svg viewBox="0 0 395.52 54.08941852117731" height="54.08941852117731" width="395.52"><g transform="matrix(1,0,0,1,0,0)"><svg width="395.52" viewBox="2.5 -37.55 278.58 38.099999999999994" height="54.08941852117731" data-palette-color="#324a6e"><path d="M6.8-2.6L6.8-34.45 2.6-35 2.6-37.15 8.85-37.15Q10.5-37.15 13.1-37.35L13.1-37.35Q15.5-37.55 16.65-37.55L16.65-37.55Q23.15-37.55 26.08-35.4 29-33.25 29-29.15L29-29.15Q29-25.65 27.08-23.08 25.15-20.5 21.6-19.8L21.6-19.8Q26.3-19.95 28.98-17.55 31.65-15.15 31.65-11.1L31.65-11.1Q31.65-6.1 28.13-2.9 24.6 0.3 16.6 0.3L16.6 0.3Q15.65 0.3 13.55 0.2L13.55 0.2Q10.95 0 8.65 0L8.65 0 2.5 0 2.5-2.15 6.8-2.6ZM10.9-20.65Q11.7-20.6 14.05-20.6L14.05-20.6 17.05-20.6Q20.85-20.6 22.85-22.55 24.85-24.5 24.85-28.2L24.85-28.2Q24.85-31.85 22.88-33.55 20.9-35.25 16.1-35.25L16.1-35.25Q14.3-35.25 12.4-35.05L12.4-35.05Q11.2-34.95 10.9-34.95L10.9-34.95 10.9-20.65ZM10.9-2.5Q12.2-2.1 16.55-2.1L16.55-2.1Q22.15-2.1 24.65-4.23 27.15-6.35 27.15-10.35L27.15-10.35Q27.15-14.35 25-16.18 22.85-18 18.05-18L18.05-18 14.35-18Q11.65-18 10.9-17.95L10.9-17.95 10.9-2.5ZM47.8-2.6L47.8-14.3 36.25-34.4 33.15-35 33.15-37.15 45.1-37.15 45.1-35 40.9-34.45 48.45-20.3 50.25-16.3 52.2-20.3 59.45-34.45 55.25-35 55.25-37.15 66.1-37.15 66.1-35 62.8-34.45 52-14.35 52-2.65 57.7-2.15 57.7 0 42.25 0 42.25-2.15 47.8-2.6ZM80.34-2.6L80.34-34.9 70.84-34.6 69.25-24.45 66.5-24.45 67.34-37.15 97.8-37.15 98.34-24.45 95.69-24.45 94.3-34.6 84.64-34.9 84.64-2.6 91.8-2.15 91.8 0 73.8 0 73.8-2.15 80.34-2.6ZM106.34-2.6L106.34-34.45 102.14-35 102.14-37.15 126.89-37.15 127.59-29.8 125.19-29.8 123.84-34.6 110.44-34.85 110.44-20.3 119.64-20.45 120.29-24.6 122.79-24.6 122.79-13.55 120.29-13.55 119.64-17.8 110.44-17.95 110.44-2.55 125.74-2.95 128.29-9.2 130.69-8.45 129.14 0 102.04 0 102.04-2.15 106.34-2.6ZM158.59-2.6L158.59-34.9 149.09-34.6 147.49-24.45 144.74-24.45 145.59-37.15 176.04-37.15 176.59-24.45 173.94-24.45 172.54-34.6 162.89-34.9 162.89-2.6 170.04-2.15 170.04 0 152.04 0 152.04-2.15 158.59-2.6ZM184.59-2.6L184.59-34.45 180.39-35 180.39-37.15 205.14-37.15 205.84-29.8 203.44-29.8 202.09-34.6 188.69-34.85 188.69-20.3 197.89-20.45 198.54-24.6 201.04-24.6 201.04-13.55 198.54-13.55 197.89-17.8 188.69-17.95 188.69-2.55 203.99-2.95 206.54-9.2 208.94-8.45 207.39 0 180.29 0 180.29-2.15 184.59-2.6ZM229.08 0.55Q223.73 0.55 219.88-1.85 216.03-4.25 214.03-8.6 212.03-12.95 212.03-18.75L212.03-18.75Q212.03-24.2 214.38-28.5 216.73-32.8 220.78-35.18 224.83-37.55 229.83-37.55L229.83-37.55Q232.38-37.55 234.76-37.15 237.13-36.75 238.58-36.4 240.03-36.05 240.38-35.95L240.38-35.95 239.98-27.8 237.38-27.8 236.28-33.6Q235.53-34.25 233.58-34.7 231.63-35.15 228.83-35.15L228.83-35.15Q225.38-35.15 222.63-33.27 219.88-31.4 218.31-27.8 216.73-24.2 216.73-19.2L216.73-19.2Q216.73-14.5 218.11-10.55 219.48-6.6 222.28-4.23 225.08-1.85 229.18-1.85L229.18-1.85Q232.03-1.85 233.63-2.33 235.23-2.8 236.33-3.7L236.33-3.7 238.33-8.4 240.78-8.05 239.53-1.35Q238.33-1.3 236.63-0.7L236.63-0.7Q234.83-0.1 233.18 0.23 231.53 0.55 229.08 0.55L229.08 0.55ZM249.63-2.6L249.63-34.45 245.53-35 245.53-37.15 258.08-37.15 258.08-35 253.73-34.45 253.73-20.4 272.83-20.4 272.83-34.45 268.68-35 268.68-37.15 281.08-37.15 281.08-35 276.98-34.45 276.98-2.6 281.08-2.15 281.08 0 268.63 0 268.63-2.15 272.83-2.6 272.83-17.75 253.73-17.75 253.73-2.6 258.13-2.15 258.13 0 245.38 0 245.38-2.15 249.63-2.6Z" opacity="1" transform="matrix(1,0,0,1,0,0)" fill="#324a6e" class="wordmark-text-0" data-fill-palette-color="primary" id="text-0"></path></svg></g></svg></g></svg></g></svg></g><g transform="matrix(1,0,0,1,134.03975768500388,0)"><svg viewBox="0 0 127.44048462999223 127.44048462999223" height="127.44048462999223" width="127.44048462999223"><g><svg></svg></g><g id="icon-0"><svg viewBox="0 0 127.44048462999223 127.44048462999223" height="127.44048462999223" width="127.44048462999223"><g><path d="M0 63.72c0-35.192 28.529-63.72 63.72-63.72 35.192 0 63.72 28.529 63.72 63.72 0 35.192-28.529 63.72-63.72 63.72-35.192 0-63.72-28.529-63.72-63.72zM63.72 122.563c32.498 0 58.842-26.345 58.843-58.843 0-32.498-26.345-58.842-58.843-58.842-32.498 0-58.842 26.345-58.842 58.842 0 32.498 26.345 58.842 58.842 58.843z" data-fill-palette-color="tertiary" fill="#285595" stroke="transparent"></path></g><g transform="matrix(1,0,0,1,30.77164356864199,30.75433393108471)"><svg viewBox="0 0 65.89719749270824 65.93181676782281" height="65.93181676782281" width="65.89719749270824"><g><svg xmlns="http://www.w3.org/2000/svg" xmlns:xlink="http://www.w3.org/1999/xlink" version="1.1" x="0" y="0" viewBox="5.018923855757735 5 89.95274307742372 90" style="enable-background:new 0 0 100 100;" xml:space="preserve" height="65.93181676782281" width="65.89719749270824" class="icon-z$-0" data-fill-palette-color="accent" id="z$-0"><path d="M67.39 73.12c0-0.66-0.27-1.311-0.729-1.771-0.931-0.93-2.61-0.93-3.54 0-0.471 0.46-0.73 1.11-0.73 1.771 0 0.649 0.26 1.3 0.73 1.76 0.47 0.47 1.109 0.74 1.77 0.74s1.3-0.271 1.771-0.74C67.12 74.42 67.39 73.78 67.39 73.12z" fill="#d9741b" data-fill-palette-color="accent"></path><path d="M28.49 69.62c0.54 0 1.09-0.181 1.55-0.54 1.08-0.87 1.26-2.44 0.399-3.521-0.859-1.08-2.43-1.26-3.51-0.39-1.08 0.86-1.26 2.43-0.399 3.51C27.02 69.3 27.75 69.62 28.49 69.62z" fill="#d9741b" data-fill-palette-color="accent"></path><path d="M77.569 48.49c-1.38-0.051-2.539 1.029-2.59 2.409-0.04 1.381 1.04 2.54 2.41 2.591 0.03 0 0.061 0 0.09 0 1.34 0 2.45-1.061 2.5-2.41C80.03 49.7 78.95 48.54 77.569 48.49z" fill="#d9741b" data-fill-palette-color="accent"></path><path d="M33.6 30.42c0.521 0 1.05-0.16 1.5-0.49 1.101-0.83 1.33-2.39 0.51-3.5-0.819-1.11-2.39-1.34-3.5-0.51-1.109 0.82-1.34 2.39-0.51 3.49C32.09 30.069 32.84 30.42 33.6 30.42z" fill="#d9741b" data-fill-palette-color="accent"></path><path d="M29.52 35.66c0.8-1.141 0.521-2.69-0.609-3.49-1.13-0.79-2.69-0.521-3.48 0.61-0.79 1.13-0.52 2.689 0.61 3.489 0.439 0.3 0.939 0.45 1.43 0.45C28.26 36.72 29.04 36.35 29.52 35.66z" fill="#d9741b" data-fill-palette-color="accent"></path><path d="M41.399 26.37c0.261 0 0.521-0.04 0.78-0.12 1.311-0.44 2.021-1.851 1.59-3.16-0.43-1.31-1.84-2.021-3.149-1.59-1.311 0.43-2.03 1.84-1.601 3.149C39.37 25.71 40.35 26.37 41.399 26.37z" fill="#d9741b" data-fill-palette-color="accent"></path><path d="M56.38 23.13c-0.44 1.31 0.26 2.72 1.57 3.16 0.27 0.09 0.529 0.13 0.8 0.13 1.04 0 2.02-0.66 2.37-1.7 0.439-1.31-0.271-2.729-1.58-3.17C58.229 21.109 56.81 21.819 56.38 23.13z" fill="#d9741b" data-fill-palette-color="accent"></path><path d="M77.1 44.67c1.33-0.39 2.09-1.771 1.7-3.101-0.39-1.319-1.78-2.079-3.1-1.699-1.33 0.39-2.091 1.779-1.7 3.1 0.319 1.09 1.319 1.8 2.399 1.8C76.63 44.77 76.87 44.74 77.1 44.67z" fill="#d9741b" data-fill-palette-color="accent"></path><path d="M68.02 26.02c-1.1-0.83-2.67-0.609-3.5 0.49s-0.609 2.67 0.5 3.5c0.45 0.34 0.98 0.51 1.5 0.51 0.761 0 1.511-0.35 2-1C69.35 28.41 69.13 26.85 68.02 26.02z" fill="#d9741b" data-fill-palette-color="accent"></path><path d="M23.31 57.12c-1.29 0.47-1.96 1.91-1.479 3.21 0.37 1.01 1.319 1.64 2.35 1.64 0.28 0 0.57-0.05 0.86-0.16 1.29-0.47 1.96-1.91 1.479-3.21C26.04 57.31 24.609 56.64 23.31 57.12z" fill="#d9741b" data-fill-palette-color="accent"></path><path d="M74.899 61.95c0.29 0.109 0.58 0.159 0.87 0.159 1.021 0 1.971-0.619 2.351-1.63 0.479-1.29-0.181-2.729-1.471-3.21-1.3-0.489-2.739 0.17-3.22 1.46C72.95 60.02 73.6 61.47 74.899 61.95z" fill="#d9741b" data-fill-palette-color="accent"></path><path d="M74.67 32.92c-0.79-1.13-2.351-1.42-3.48-0.63-1.14 0.79-1.42 2.35-0.63 3.479 0.48 0.7 1.26 1.08 2.05 1.08 0.49 0 0.99-0.149 1.431-0.45C75.17 35.609 75.45 34.05 74.67 32.92z" fill="#d9741b" data-fill-palette-color="accent"></path><path d="M69.47 65.67c-0.86 1.07-0.689 2.649 0.38 3.52 0.46 0.37 1.021 0.551 1.57 0.551 0.729 0 1.45-0.32 1.95-0.931 0.859-1.08 0.689-2.649-0.38-3.52C71.92 64.43 70.34 64.59 69.47 65.67z" fill="#d9741b" data-fill-palette-color="accent"></path><path d="M21.25 41.41c-0.4 1.319 0.359 2.71 1.68 3.109 0.24 0.07 0.48 0.11 0.71 0.11 1.08 0 2.08-0.71 2.4-1.79 0.39-1.32-0.36-2.72-1.681-3.11C23.04 39.33 21.64 40.09 21.25 41.41z" fill="#d9741b" data-fill-palette-color="accent"></path><path d="M22.51 53.34c0.03 0 0.05 0 0.08 0 1.38-0.05 2.46-1.2 2.42-2.58s-1.19-2.46-2.57-2.42-2.47 1.19-2.42 2.57C20.05 52.27 21.17 53.34 22.51 53.34z" fill="#d9741b" data-fill-palette-color="accent"></path><path d="M47.58 22.49C47.569 23.87 48.689 25 50.069 25c0 0 0 0 0.011 0 1.37 0 2.489-1.11 2.5-2.49 0-1.38-1.11-2.51-2.5-2.51C48.7 20 47.58 21.109 47.58 22.49z" fill="#d9741b" data-fill-palette-color="accent"></path><path d="M33.3 71.319c-0.47 0.461-0.74 1.11-0.74 1.771 0 0.65 0.271 1.3 0.74 1.76 0.46 0.47 1.1 0.74 1.76 0.74s1.311-0.271 1.771-0.74c0.47-0.47 0.729-1.109 0.729-1.76 0-0.66-0.26-1.3-0.729-1.771C35.899 70.39 34.22 70.39 33.3 71.319z" fill="#d9741b" data-fill-palette-color="accent"></path><path d="M71.45 79.42c0-0.66-0.271-1.3-0.73-1.771-0.939-0.93-2.61-0.93-3.54 0-0.46 0.471-0.729 1.11-0.729 1.771s0.27 1.3 0.729 1.77c0.47 0.46 1.11 0.73 1.771 0.73 0.659 0 1.3-0.271 1.77-0.73C71.18 80.72 71.45 80.08 71.45 79.42z" fill="#d9741b" data-fill-palette-color="accent"></path><path d="M16.28 59.729c-1.301 0.471-1.971 1.91-1.49 3.2 0.37 1.01 1.33 1.64 2.35 1.64 0.29 0 0.58-0.05 0.86-0.149 1.3-0.48 1.96-1.92 1.49-3.21C19.01 59.91 17.569 59.25 16.28 59.729z" fill="#d9741b" data-fill-palette-color="accent"></path><path d="M39.04 19.25c0.26 0 0.52-0.04 0.779-0.13 0 0.01 0 0.01 0 0.01 1.311-0.44 2.021-1.85 1.591-3.16-0.431-1.32-1.841-2.03-3.16-1.59h0.01c-1.32 0.43-2.03 1.84-1.6 3.15C37.01 18.58 37.99 19.25 39.04 19.25z" fill="#d9741b" data-fill-palette-color="accent"></path><path d="M23.37 31.37c0.79-1.13 0.52-2.69-0.61-3.48-1.13-0.8-2.69-0.52-3.479 0.61-0.801 1.13-0.521 2.689 0.609 3.479 0.43 0.301 0.93 0.45 1.43 0.45C22.109 32.43 22.88 32.06 23.37 31.37z" fill="#d9741b" data-fill-palette-color="accent"></path><path d="M31.12 20.42c-0.82-1.11-2.391-1.34-3.5-0.51-1.101 0.819-1.33 2.39-0.511 3.5 0.49 0.649 1.24 1 2.011 1 0.52 0 1.04-0.16 1.489-0.49C31.72 23.09 31.939 21.52 31.12 20.42z" fill="#d9741b" data-fill-palette-color="accent"></path><path d="M50.09 12.5c-1.38 0-2.5 1.109-2.5 2.5-0.01 1.37 1.11 2.5 2.49 2.5s2.5-1.12 2.51-2.49C52.59 13.63 51.47 12.5 50.09 12.5z" fill="#d9741b" data-fill-palette-color="accent"></path><path d="M15.74 42.399c0.239 0.07 0.479 0.101 0.71 0.101 1.08 0 2.069-0.7 2.399-1.79C19.24 39.39 18.49 38 17.16 37.6c-1.32-0.39-2.71 0.36-3.101 1.69C13.66 40.609 14.41 42 15.74 42.399z" fill="#d9741b" data-fill-palette-color="accent"></path><path d="M15.09 53.59c1.38-0.05 2.47-1.2 2.43-2.58-0.05-1.38-1.2-2.46-2.58-2.42s-2.46 1.2-2.42 2.58c0.04 1.35 1.15 2.42 2.5 2.42C15.04 53.59 15.069 53.59 15.09 53.59z" fill="#d9741b" data-fill-palette-color="accent"></path><path d="M58.75 16.01c-0.44 1.31 0.27 2.72 1.58 3.16 0.26 0.09 0.529 0.13 0.79 0.13 1.04 0 2.02-0.66 2.37-1.7 0.439-1.31-0.271-2.729-1.58-3.17C60.6 13.99 59.189 14.7 58.75 16.01z" fill="#d9741b" data-fill-palette-color="accent"></path><path d="M85.06 48.76c-1.37-0.05-2.529 1.03-2.58 2.41-0.05 1.37 1.03 2.53 2.41 2.58 0.03 0 0.061 0 0.09 0 1.34 0 2.45-1.061 2.5-2.41C87.52 49.96 86.45 48.8 85.06 48.76z" fill="#d9741b" data-fill-palette-color="accent"></path><path d="M72.52 20.01c-1.1-0.83-2.67-0.61-3.5 0.5-0.83 1.1-0.609 2.67 0.5 3.5 0.44 0.34 0.971 0.5 1.49 0.5 0.76 0 1.51-0.35 2-1C73.84 22.41 73.62 20.84 72.52 20.01z" fill="#d9741b" data-fill-palette-color="accent"></path><path d="M24.59 70.25c-0.86-1.08-2.44-1.25-3.51-0.391-1.08 0.86-1.261 2.431-0.4 3.511 0.5 0.62 1.22 0.939 1.96 0.939 0.55 0 1.09-0.18 1.561-0.54C25.27 72.899 25.45 71.33 24.59 70.25z" fill="#d9741b" data-fill-palette-color="accent"></path><path d="M78.83 69.99c-1.07-0.86-2.65-0.7-3.511 0.38-0.869 1.069-0.699 2.649 0.37 3.52 0.471 0.37 1.021 0.55 1.57 0.55 0.73 0 1.45-0.319 1.95-0.93C80.08 72.43 79.91 70.859 78.83 69.99z" fill="#d9741b" data-fill-palette-color="accent"></path><path d="M81.2 40.859c0.319 1.091 1.31 1.801 2.399 1.801 0.23 0 0.46-0.03 0.7-0.101 1.32-0.39 2.08-1.779 1.7-3.1-0.391-1.33-1.78-2.09-3.101-1.7C81.569 38.14 80.81 39.53 81.2 40.859z" fill="#d9741b" data-fill-palette-color="accent"></path><path d="M81.93 64.56c0.29 0.11 0.58 0.16 0.87 0.16 1.02 0 1.97-0.62 2.35-1.62 0.48-1.3-0.18-2.74-1.47-3.22-1.3-0.48-2.74 0.18-3.22 1.47C79.979 62.64 80.64 64.08 81.93 64.56z" fill="#d9741b" data-fill-palette-color="accent"></path><path d="M80.83 28.64c-0.79-1.13-2.351-1.41-3.48-0.63-1.14 0.79-1.42 2.35-0.63 3.48 0.48 0.699 1.26 1.079 2.061 1.079 0.489 0 0.989-0.149 1.42-0.449C81.33 31.33 81.609 29.78 80.83 28.64z" fill="#d9741b" data-fill-palette-color="accent"></path><path d="M29.22 77.609c-0.46 0.471-0.729 1.11-0.729 1.771s0.27 1.3 0.729 1.77c0.47 0.46 1.11 0.73 1.771 0.73 0.659 0 1.3-0.271 1.77-0.73 0.46-0.47 0.73-1.109 0.73-1.77 0-0.65-0.271-1.3-0.73-1.771C31.819 76.689 30.16 76.68 29.22 77.609z" fill="#d9741b" data-fill-palette-color="accent"></path><path d="M71.24 83.96c-0.46 0.46-0.73 1.109-0.73 1.77 0 0.65 0.271 1.301 0.73 1.761 0.46 0.47 1.109 0.739 1.77 0.739s1.3-0.27 1.771-0.739c0.46-0.46 0.729-1.11 0.729-1.761 0-0.66-0.27-1.31-0.729-1.77C73.84 83.03 72.17 83.03 71.24 83.96z" fill="#d9741b" data-fill-palette-color="accent"></path><path d="M9.97 35.46c-1.32-0.391-2.71 0.359-3.11 1.689-0.39 1.32 0.36 2.71 1.69 3.11 0.23 0.07 0.47 0.1 0.71 0.1 1.08 0 2.07-0.699 2.4-1.79C12.05 37.25 11.3 35.859 9.97 35.46z" fill="#d9741b" data-fill-palette-color="accent"></path><path d="M24.64 18.399c0.521 0 1.04-0.159 1.49-0.5 1.11-0.819 1.33-2.39 0.51-3.5-0.83-1.109-2.39-1.33-3.5-0.51-1.109 0.83-1.33 2.391-0.51 3.5C23.12 18.05 23.87 18.399 24.64 18.399z" fill="#d9741b" data-fill-palette-color="accent"></path><path d="M37.46 12c0.01 0 0.01 0 0.01 0 1.311-0.431 2.021-1.84 1.59-3.15-0.43-1.319-1.85-2.03-3.16-1.6-1.31 0.439-2.02 1.85-1.59 3.16 0.34 1.05 1.32 1.72 2.37 1.72C36.939 12.13 37.2 12.09 37.46 12z" fill="#d9741b" data-fill-palette-color="accent"></path><path d="M90.71 62.5c-1.29-0.49-2.73 0.17-3.22 1.47-0.48 1.29 0.18 2.73 1.47 3.21 0.29 0.11 0.59 0.16 0.88 0.16 1.01 0 1.96-0.62 2.34-1.63C92.66 64.42 92 62.979 90.71 62.5z" fill="#d9741b" data-fill-palette-color="accent"></path><path d="M77.52 17.51c0.82-1.1 0.601-2.67-0.5-3.5-1.1-0.83-2.67-0.61-3.5 0.5-0.83 1.1-0.609 2.67 0.49 3.5 0.01 0 0.01 0 0.01 0 0.44 0.34 0.971 0.5 1.49 0.5C76.27 18.51 77.02 18.16 77.52 17.51z" fill="#d9741b" data-fill-palette-color="accent"></path><path d="M64.29 7.319c-1.311-0.439-2.73 0.271-3.16 1.58-0.44 1.301 0.26 2.721 1.58 3.16-0.01 0-0.01 0-0.01 0 0.27 0.09 0.529 0.13 0.8 0.13 1.04 0 2.02-0.659 2.37-1.71C66.31 9.17 65.6 7.75 64.29 7.319z" fill="#d9741b" data-fill-palette-color="accent"></path><path d="M50.1 5c-1.38 0-2.5 1.109-2.5 2.49C47.59 8.88 48.71 10 50.09 10h0.01c1.38 0 2.49-1.12 2.5-2.49C52.6 6.12 51.479 5 50.1 5z" fill="#d9741b" data-fill-palette-color="accent"></path><path d="M90.79 40.54c0.24 0 0.47-0.03 0.71-0.101 1.319-0.38 2.08-1.77 1.7-3.1-0.391-1.32-1.78-2.08-3.11-1.7-1.32 0.391-2.08 1.78-1.69 3.11C88.71 39.84 89.71 40.54 90.79 40.54z" fill="#d9741b" data-fill-palette-color="accent"></path><path d="M15.21 74.54c-1.07 0.859-1.25 2.43-0.391 3.51 0.5 0.62 1.221 0.94 1.961 0.94 0.539 0 1.1-0.181 1.56-0.551 1.07-0.859 1.25-2.43 0.39-3.51C17.859 73.85 16.29 73.68 15.21 74.54z" fill="#d9741b" data-fill-palette-color="accent"></path><path d="M9.24 62.319c-1.301 0.471-1.971 1.91-1.49 3.211 0.38 1.01 1.33 1.63 2.35 1.63 0.29 0 0.58-0.051 0.86-0.15 1.3-0.479 1.96-1.92 1.49-3.21C11.97 62.5 10.53 61.84 9.24 62.319z" fill="#d9741b" data-fill-palette-color="accent"></path><path d="M10.02 51.25c-0.04-1.38-1.2-2.46-2.58-2.42s-2.46 1.189-2.42 2.569c0.04 1.36 1.15 2.431 2.5 2.431 0.03 0 0.05 0 0.08 0C8.979 53.78 10.06 52.63 10.02 51.25z" fill="#d9741b" data-fill-palette-color="accent"></path><path d="M84.68 74.689c-1.08-0.87-2.649-0.699-3.52 0.38-0.86 1.07-0.7 2.65 0.38 3.511 0.46 0.38 1.02 0.56 1.569 0.56 0.73 0 1.45-0.32 1.95-0.93C85.92 77.13 85.75 75.56 84.68 74.689z" fill="#d9741b" data-fill-palette-color="accent"></path><path d="M84.939 28.29c0.49 0 0.99-0.141 1.42-0.44 1.141-0.79 1.421-2.35 0.631-3.479-0.79-1.141-2.351-1.42-3.48-0.63s-1.42 2.34-0.63 3.479C83.37 27.92 84.149 28.29 84.939 28.29z" fill="#d9741b" data-fill-palette-color="accent"></path><path d="M92.56 49.02c-1.38-0.05-2.54 1.03-2.58 2.41-0.05 1.38 1.021 2.54 2.41 2.59 0.021 0 0.05 0 0.08 0 1.34 0 2.46-1.06 2.5-2.41C95.02 50.229 93.939 49.069 92.56 49.02z" fill="#d9741b" data-fill-palette-color="accent"></path><path d="M17.22 27.069c0.79-1.13 0.521-2.689-0.61-3.479-1.13-0.79-2.689-0.521-3.479 0.61-0.8 1.13-0.521 2.689 0.61 3.489 0.43 0.301 0.93 0.45 1.43 0.45C15.96 28.14 16.729 27.77 17.22 27.069z" fill="#d9741b" data-fill-palette-color="accent"></path><path d="M25.149 83.91c-0.46 0.46-0.729 1.109-0.729 1.77s0.27 1.3 0.729 1.76c0.471 0.471 1.11 0.74 1.771 0.74s1.3-0.27 1.76-0.74c0.47-0.46 0.74-1.1 0.74-1.76s-0.271-1.3-0.74-1.77C27.76 82.979 26.08 82.979 25.149 83.91z" fill="#d9741b" data-fill-palette-color="accent"></path><path d="M72.5 50c0-12.813-10.771-23.166-23.727-22.467C36.969 28.161 27.426 38.306 27.5 50.146c0.049 7.595 3.893 14.599 10.282 18.737C39.171 69.782 40 71.332 40 73.029V85c0 5.514 4.486 10 10 10s10-4.486 10-10V73.03c0-1.701 0.814-3.243 2.179-4.122C68.642 64.741 72.5 57.673 72.5 50zM55 75H45v-1.971c0-3.4-1.683-6.52-4.5-8.344-4.972-3.22-7.962-8.667-8-14.571-0.058-9.21 7.361-17.1 16.539-17.589C49.361 32.509 49.681 32.5 50 32.5c9.649 0 17.5 7.851 17.5 17.5 0 5.967-3.002 11.464-8.03 14.706C56.671 66.51 55 69.622 55 73.03V75zM50 90c-2.757 0-5-2.243-5-5v-5h10v5C55 87.757 52.757 90 50 90z" fill="#d9741b" data-fill-palette-color="accent"></path><polygon points="58.232,43.232 48,53.465 41.768,47.232 38.232,50.768 48,60.535 61.768,46.768 " fill="#d9741b" data-fill-palette-color="accent"></polygon></svg></g></svg></g></svg></g></svg></g><g></g></svg></g><defs></defs></svg><rect width="395.52" height="207.06833028478047" fill="none" stroke="none" visibility="hidden"></rect></g></svg></g></svg>